<svg width="32" height="32" viewBox="0 0 32 32" fill="none" xmlns="http://www.w3.org/2000/svg">
<path d="M16 14.25C19.3829 14.25 22.125 11.5081 22.125 8.125C22.125 4.74189 19.3831 2 16 2C12.6189 2 9.875 4.74189 9.875 8.125C9.875 11.5081 12.6187 14.25 16 14.25Z" fill="white"/>
<path d="M27.4635 29.9999C27.8391 29.9895 28.2088 29.9062 28.5459 29.7552C28.8829 29.6042 29.1795 29.389 29.4163 29.1252C29.6532 28.8632 29.8246 28.556 29.917 28.228C30.0114 27.8999 30.0249 27.5563 29.9594 27.2231C29.3547 24.2675 27.6349 21.5894 25.0909 19.6474C22.5468 17.7036 19.3344 16.612 16.0006 16.5599C12.6958 16.6033 9.5085 17.6672 6.96847 19.5711C4.42829 21.4767 2.68922 24.1078 2.04213 27.0285C1.97472 27.3618 1.9882 27.7054 2.08257 28.0334C2.17694 28.3614 2.34642 28.6686 2.58328 28.9307C2.82016 29.1945 3.11865 29.4097 3.45568 29.5607C3.7927 29.7117 4.16055 29.795 4.538 29.8054L27.4635 29.9999Z" fill="white"/>
</svg>
