<svg width="32" height="32" viewBox="0 0 32 32" fill="none" xmlns="http://www.w3.org/2000/svg">
<g clip-path="url(#clip0_22_2)">
<path fill-rule="evenodd" clip-rule="evenodd" d="M16 32C7.16335 32 0 24.8367 0 16C0 7.16335 7.16335 0 16 0C24.8367 0 32 7.16335 32 16C32 24.8367 24.8367 32 16 32ZM12.8 13.3818H9.01818C7.57271 13.3818 6.4 14.5545 6.4 16C6.4 17.4455 7.57271 18.6182 9.01818 18.6182H12.8C13.1205 18.6182 13.3818 18.8795 13.3818 19.2V22.9818C13.3818 24.4273 14.5545 25.6 16 25.6C17.4455 25.6 18.6182 24.4273 18.6182 22.9818V19.2C18.6182 18.8795 18.8795 18.6182 19.2 18.6182H22.9818C24.4273 18.6182 25.6 17.4455 25.6 16C25.6 14.5545 24.4273 13.3818 22.9818 13.3818H19.2C18.8795 13.3818 18.6182 13.1205 18.6182 12.8V9.01818C18.6182 7.57271 17.4455 6.4 16 6.4C14.5545 6.4 13.3818 7.57271 13.3818 9.01818V12.8C13.3818 13.1205 13.1205 13.3818 12.8 13.3818Z" fill="white"/>
</g>
<defs>
<clipPath id="clip0_22_2">
<rect width="32" height="32" fill="white"/>
</clipPath>
</defs>
</svg>
