<svg width="30" height="32" viewBox="0 0 30 32" fill="none" xmlns="http://www.w3.org/2000/svg">
<path d="M14.88 13.76C18.6799 13.76 21.76 10.6801 21.76 6.88C21.76 3.07987 18.6801 0 14.88 0C11.0821 0 8 3.07987 8 6.88C8 10.6801 11.0819 13.76 14.88 13.76Z" fill="white"/>
<path d="M27.0931 32C27.4879 31.9881 27.8767 31.8929 28.2311 31.7203C28.5854 31.5478 28.8973 31.3018 29.1463 31.0003C29.3954 30.7008 29.5756 30.3498 29.6728 29.9749C29.772 29.6 29.7862 29.2073 29.7173 28.8265C29.0815 25.4487 27.2733 22.388 24.5984 20.1686C21.9235 17.9471 18.5459 16.6995 15.0406 16.64C11.5659 16.6896 8.21466 17.9055 5.544 20.0813C2.87318 22.2592 1.04467 25.2661 0.364303 28.6041C0.293431 28.985 0.307604 29.3777 0.406827 29.7526C0.506049 30.1274 0.68424 30.4785 0.933287 30.778C1.18235 31.0795 1.49619 31.3254 1.85055 31.498C2.2049 31.6706 2.59167 31.7658 2.98854 31.7777L27.0931 32Z" fill="white"/>
</svg>
