<?xml version="1.0" encoding="UTF-8"?>
<svg width="100pt" height="100pt" version="1.1" viewBox="0 0 100 100" xmlns="http://www.w3.org/2000/svg">
 <path d="m91.406 32.508c-2.2656-5.3516-5.5039-10.156-9.6328-14.285-4.1289-4.1289-8.9336-7.3672-14.285-9.6328-5.5391-2.3438-11.422-3.5312-17.488-3.5312s-11.953 1.1875-17.492 3.5312c-5.3516 2.2656-10.156 5.5039-14.285 9.6328-4.1289 4.125-7.3672 8.9336-9.6328 14.285-2.3438 5.5391-3.5312 11.426-3.5312 17.492s1.1875 11.949 3.5312 17.492c2.2656 5.3516 5.5039 10.156 9.6328 14.285 4.125 4.125 8.9336 7.3633 14.285 9.6289 5.5391 2.3477 11.426 3.5352 17.492 3.5352s11.949-1.1875 17.492-3.5312c5.3516-2.2656 10.156-5.5039 14.285-9.6289 4.1289-4.1289 7.3633-8.9336 9.6328-14.285 2.3438-5.5469 3.5273-11.43 3.5273-17.496s-1.1836-11.953-3.5312-17.492zm-41.406 51.074c-3.8867 0-7.0469-3.1602-7.0469-7.0469 0-3.8867 3.1602-7.0469 7.0469-7.0469s7.0469 3.1602 7.0469 7.0469c0 3.8867-3.1602 7.0469-7.0469 7.0469zm16.906-39.738c-1.2695 2.5273-3.1328 4.7734-5.3789 6.5039-0.63672 0.48828-1.3047 0.9375-1.9883 1.3438-0.066406 0.039063-0.13672 0.074219-0.19922 0.11328l-0.054688 0.027343c-0.058594 0.035157-0.12109 0.070313-0.1875 0.10547-2.7578 1.457-4.4727 4.2969-4.4727 7.4102v3.2305c0 0.30859-0.25 0.55859-0.55859 0.55859h-8.1484c-0.30859 0-0.55469-0.25-0.55469-0.55859v-3.2305c0-6.5117 3.5664-12.469 9.3086-15.547 0.019531-0.011719 0.042969-0.023437 0.066406-0.039062 0.039063-0.023438 0.085938-0.046875 0.125-0.070313 0.35156-0.20312 0.69141-0.43359 1.0156-0.68359 2.3984-1.8477 3.7773-4.6406 3.7773-7.6641 0-5.3281-4.332-9.6602-9.6602-9.6602s-9.6602 4.3359-9.6602 9.6602c0 0.30469-0.25 0.55469-0.55859 0.55469h-8.1484c-0.30859 0-0.55859-0.25-0.55859-0.55469 0-2.5508 0.5-5.0312 1.4883-7.3672 0.95312-2.2539 2.3164-4.2773 4.0547-6.0156 1.7344-1.7344 3.7578-3.1016 6.0117-4.0547 2.3359-0.98828 4.8125-1.4883 7.3672-1.4883 2.5547 0 5.0312 0.5 7.3672 1.4883 2.2539 0.95312 4.2773 2.3164 6.0156 4.0547 1.7344 1.7383 3.1016 3.7617 4.0547 6.0156 0.98437 2.3359 1.4883 4.8125 1.4883 7.3672 0.007812 2.9844-0.67188 5.8438-2.0117 8.5z" fill="#fff"/>
</svg>
