<?xml version="1.0" encoding="UTF-8"?>
<svg width="100pt" height="100pt" version="1.1" viewBox="0 0 100 100" xmlns="http://www.w3.org/2000/svg">
 <g>
  <path d="m49.996 45.5c7.4219 0 13.438-6.0156 13.438-13.438s-6.0156-13.438-13.438-13.438c-7.418 0-13.438 6.0156-13.438 13.438s6.0195 13.438 13.438 13.438z"/>
  <path d="m73.254 81.25c0.76172-0.023438 1.5117-0.21094 2.1953-0.55078 0.68359-0.33984 1.2852-0.82422 1.7656-1.418 0.48047-0.58984 0.82812-1.2812 1.0156-2.0195 0.19141-0.73828 0.21875-1.5117 0.085937-2.2617-1.2266-6.6523-4.7148-12.68-9.875-17.051-5.1602-4.375-11.676-6.832-18.438-6.9492-6.7031 0.097656-13.168 2.4922-18.32 6.7773-5.1523 4.2891-8.6797 10.211-9.9922 16.785-0.13672 0.75-0.10938 1.5234 0.082032 2.2617 0.19141 0.73828 0.53516 1.4297 1.0156 2.0195 0.48047 0.59375 1.0859 1.0781 1.7695 1.418 0.68359 0.33984 1.4297 0.52734 2.1953 0.55078z"/>
 </g>
</svg>
