<?xml version="1.0" encoding="UTF-8"?>
<svg width="100pt" height="100pt" version="1.1" viewBox="0 0 100 100" xmlns="http://www.w3.org/2000/svg">
 <path d="m43.738 3.0664c-4.3633 2.5391-6.5273 7.6523-5.3125 12.551 0.1875 0.74609-0.26562 1.5039-1.0117 1.6914-0.75 0.19141-1.5078-0.26562-1.6953-1.0117-0.24219-0.95312-0.38281-1.9336-0.41797-2.918-5.1797 0.30078-9.8945 3.0859-12.664 7.4766-2.7656 4.3906-3.2461 9.8477-1.2812 14.652 0.28906 0.71094-0.050781 1.5273-0.76562 1.8164-5.4062 2.2148-9.5703 6.6875-11.398 12.238-1.8242 5.5508-1.125 11.621 1.9102 16.613 3.0391 4.9922 8.1094 8.4023 13.879 9.332 0.72266 0.10938 1.2344 0.75781 1.1758 1.4883-0.058594 0.72656-0.66406 1.2852-1.3945 1.2812-0.074219 0-0.14844-0.003906-0.22266-0.015625-1.7227-0.27734-3.4102-0.75-5.0234-1.4102-0.83203 4.4609 1.0156 9 4.7266 11.617 3.7109 2.6133 8.6055 2.8242 12.527 0.53906 0.35547-0.20703 0.78516-0.24609 1.1719-0.10547 0.39062 0.13672 0.69531 0.44141 0.83984 0.82422 1.293 3.4766 3.9727 6.2578 7.3945 7.6836 3.4258 1.4258 7.2852 1.3672 10.664-0.16406v-92.895c-3.6484-3.1758-8.9062-3.6914-13.102-1.2852zm-15.418 42.684 0.003907 0.003906c1.4531-0.80078 2.457-2.2305 2.7148-3.8672 0.26172-1.6406-0.25-3.3086-1.3828-4.5195-0.26172-0.26953-0.40625-0.63281-0.39844-1.0078 0.007813-0.375 0.16797-0.73047 0.44141-0.98828 0.27734-0.25781 0.64062-0.39062 1.0156-0.375 0.37891 0.015625 0.73047 0.18359 0.98047 0.46484 1.1484 1.2227 1.8906 2.7734 2.125 4.4336 6.5156-1.2656 12.957 2.4961 15.059 8.793 0.125 0.35547 0.10156 0.74219-0.0625 1.0781-0.16797 0.33594-0.45703 0.58984-0.8125 0.70703-0.35547 0.12109-0.74219 0.089844-1.0742-0.078125-0.33594-0.17188-0.58594-0.46484-0.69922-0.82422-1.7344-5.2031-7.2109-8.1719-12.52-6.7891-0.49609 2.3047-1.9688 4.2852-4.043 5.4141-0.67188 0.35938-1.5039 0.10938-1.875-0.55859-0.36719-0.66797-0.12891-1.5039 0.53125-1.8828zm5.3984 21.969 0.003906 0.003906c-0.023437-3.1992-1.3906-6.2422-3.7617-8.3906-2.3711-2.1445-5.5352-3.1992-8.7227-2.9023-0.37109 0.042968-0.74609-0.066407-1.0391-0.30469-0.28906-0.23828-0.47266-0.58203-0.50781-0.95703-0.035156-0.37109 0.082032-0.74609 0.32422-1.0312 0.24609-0.28516 0.59375-0.46094 0.96875-0.48828 5.0859-0.47656 10.035 1.8164 12.953 6.0117 4.6914-1.9453 10.098-0.625 13.363 3.2617 0.48047 0.59375 0.39844 1.4609-0.1875 1.9492-0.58203 0.49219-1.4531 0.42188-1.9492-0.15625-2.4023-2.8633-6.3438-3.9023-9.8477-2.6016 0.76953 1.7617 1.1797 3.6602 1.1953 5.582 0.003906 0.37109-0.14062 0.72656-0.39844 0.99219-0.26172 0.26172-0.61328 0.41406-0.98438 0.41406h-0.011718c-0.76563 0-1.3867-0.61719-1.3945-1.3789zm19.688 4.0117 0.003906 0.003906c0.75781 0.14844 1.25 0.87891 1.1016 1.6367-0.14844 0.75781-0.88281 1.25-1.6367 1.1016-1.6758-0.32812-3.4102 0.070313-4.7695 1.1016s-2.2148 2.5938-2.3516 4.293c-0.007812 0.078124-0.019531 0.15234-0.039062 0.22656 2.2656 2.4414 3.4688 5.6875 3.3359 9.0156-0.03125 0.75-0.64844 1.3398-1.3945 1.3398h-0.0625c-0.37109-0.015625-0.71875-0.17578-0.96875-0.44922-0.25-0.26953-0.38281-0.63281-0.36719-1 0.10938-2.7812-0.97266-5.4766-2.9805-7.4023-2.0078-1.9258-4.7422-2.9023-7.5156-2.6758-0.76562 0.0625-1.4414-0.50781-1.5039-1.2773s0.51172-1.4414 1.2773-1.5039c2.7109-0.21875 5.4141 0.45312 7.7109 1.9102 1.2031-4.4453 5.6367-7.2031 10.156-6.3164zm-2.9453-52.137 0.003906 0.003906c-0.53906 3.8555-2.8125 7.25-6.168 9.2188s-7.4297 2.2969-11.055 0.88672c-0.71875-0.27734-1.0781-1.0859-0.80078-1.8047s1.0859-1.0781 1.8047-0.80078c2.8359 1.0938 6.0156 0.83594 8.6328-0.69922 2.6211-1.5391 4.3984-4.1914 4.8203-7.1992 0.12109-0.75 0.82422-1.2656 1.5742-1.1602 0.75391 0.10938 1.2852 0.79688 1.1914 1.5508zm22.785 18.621h-13.566v-2.793l13.566 0.003906c0.76953 0 1.3945 0.625 1.3945 1.3945 0 0.76953-0.625 1.3945-1.3945 1.3945zm11.488 2.7969v0.003906c0.375-0.011719 0.74219 0.13281 1.0117 0.39453 0.26953 0.26172 0.42188 0.62109 0.42188 1 0 0.375-0.15234 0.73828-0.42188 1-0.26953 0.26172-0.63672 0.40625-1.0117 0.39453h-6.1562c-0.75781-0.019532-1.3594-0.64063-1.3594-1.3945 0-0.75781 0.60156-1.375 1.3594-1.3945zm-19.891-31.438h-5.1641v-2.7891h5.1641c0.76953 0 1.3945 0.625 1.3945 1.3945 0 0.76953-0.625 1.3945-1.3945 1.3945zm0.36328 16.988h-5.5273v-2.793h6.1055c0.37109 0 0.72266 0.14844 0.98438 0.41016l4.5391 4.5391h8.2969c0.68359-2.1094 2.8047-3.4062 4.9961-3.0586 2.1875 0.34766 3.8008 2.2344 3.8008 4.4531s-1.6133 4.1094-3.8008 4.4531c-2.1914 0.34766-4.3125-0.94922-4.9961-3.0586h-8.875c-0.37109 0-0.72656-0.14453-0.98828-0.40625zm3.2773 19.895h-8.8047v-2.7891h8.8047c0.37891-0.011719 0.74219 0.13281 1.0117 0.39453 0.26953 0.26172 0.42188 0.625 0.42188 1 0 0.37891-0.15234 0.73828-0.42188 1-0.26953 0.26562-0.63281 0.40625-1.0117 0.39453zm-0.51172-26.02h-8.293v-2.7891h8.2969c0.75391 0.019531 1.3555 0.63672 1.3555 1.3945 0 0.75391-0.60156 1.375-1.3555 1.3945zm-2.1875 36.02h-6.1055v-2.793l5.5273 0.003907 4.5391-4.5391c0.26172-0.26172 0.61719-0.41016 0.98828-0.41016h8.8711c0.68359-2.1094 2.8047-3.4062 4.9961-3.0586 2.1875 0.34766 3.8008 2.2383 3.8008 4.4531 0 2.2188-1.6133 4.1094-3.8008 4.457-2.1914 0.34766-4.3125-0.94922-4.9961-3.0586h-8.2969l-4.5391 4.5312c-0.25781 0.26172-0.61328 0.41406-0.98438 0.41406zm16.16-35.547c0.76953 0 1.3945 0.625 1.3945 1.3945 0 0.77344-0.625 1.3984-1.3945 1.3984h-6.1562c-0.76953 0-1.3945-0.625-1.3945-1.3984 0-0.76953 0.625-1.3945 1.3945-1.3945zm-7.832-5.4766h-14.434v-2.793l14.434 0.003906c0.6875-2.1094 2.8047-3.4102 4.9961-3.0625 2.1914 0.34766 3.8047 2.2383 3.8047 4.457s-1.6133 4.1055-3.8047 4.4531c-2.1914 0.34766-4.3086-0.94922-4.9961-3.0586zm7.6055 41.02c0.76953 0 1.3945 0.625 1.3945 1.3945 0 0.76953-0.625 1.3945-1.3945 1.3945h-6.1602c-0.76953 0-1.3945-0.625-1.3945-1.3945 0-0.76953 0.625-1.3945 1.3945-1.3945zm8.5586 21.5c0 0.76953-0.625 1.3945-1.3945 1.3945h-6.1602c-0.75391-0.019531-1.3555-0.64062-1.3555-1.3945 0-0.75781 0.60156-1.375 1.3555-1.3945h6.1602c0.36719 0 0.72266 0.14453 0.98438 0.40625 0.26172 0.26172 0.41016 0.61719 0.41016 0.98828zm1.5234-13.84c0 0.37109-0.14453 0.72266-0.40625 0.98438-0.26172 0.26172-0.61719 0.41016-0.98828 0.41016h-6.1562c-0.375 0.011719-0.74219-0.13281-1.0117-0.39453s-0.42188-0.625-0.42188-1c0-0.37891 0.15234-0.73828 0.42188-1s0.63672-0.40625 1.0117-0.39453h6.1562c0.37109 0 0.72656 0.14453 0.98828 0.40625s0.40625 0.61719 0.40625 0.98828zm-21.863 21.805h-10.258v-2.793h10.258c0.375-0.011719 0.74219 0.13281 1.0117 0.39453s0.42188 0.625 0.42188 1c0 0.37891-0.15234 0.73828-0.42188 1-0.26953 0.26562-0.63672 0.40625-1.0117 0.39453zm18.422 0.42969-0.003906-0.003906c0.003906 2.2188-1.6094 4.1094-3.8008 4.457-2.1914 0.34766-4.3086-0.94922-4.9961-3.0586h-2.6406l-4.5391 4.5391v-0.003906c-0.26172 0.26172-0.61328 0.41016-0.98438 0.41016h-11.715v-2.793h11.137l4.5391-4.5391c0.26172-0.25781 0.61328-0.40625 0.98438-0.40625h3.2188c0.6875-2.1094 2.8047-3.4062 4.9961-3.0586 2.1914 0.34766 3.8047 2.2344 3.8008 4.4531zm-23.145-7.4102h-5.5352v-2.793h5.5352c0.375-0.007812 0.73828 0.13281 1.0117 0.39453 0.26953 0.26563 0.42188 0.625 0.42188 1.0039 0 0.375-0.15234 0.73438-0.42188 1-0.27344 0.26172-0.63672 0.40234-1.0117 0.39453zm2.7656-14.66h-8.3008v-2.7891h8.3008c0.75391 0.019531 1.3555 0.63672 1.3555 1.3945 0 0.75781-0.60156 1.375-1.3555 1.3945zm6.1367 7.1016h-14.438v-2.7891h14.434c0.6875-2.1094 2.8047-3.4062 4.9961-3.0586s3.8047 2.2344 3.8047 4.4531-1.6133 4.1094-3.8047 4.457c-2.1914 0.34375-4.3086-0.95312-4.9961-3.0625z"/>
</svg>
